Coordinates
version=1
nRows=16
nColumns=40
inDegrees=yes
endheader
time	pelvis_tilt	pelvis_list	pelvis_rotation	pelvis_tx	pelvis_ty	pelvis_tz	hip_flexion_r	hip_adduction_r	hip_rotation_r	knee_angle_r	knee_angle_r_beta	ankle_angle_r	subtalar_angle_r	mtp_angle_r	hip_flexion_l	hip_adduction_l	hip_rotation_l	knee_angle_l	knee_angle_l_beta	ankle_angle_l	subtalar_angle_l	mtp_angle_l	lumbar_extension	lumbar_bending	lumbar_rotation	arm_flex_r	arm_add_r	arm_rot_r	elbow_flex_r	pro_sup_r	wrist_flex_r	wrist_dev_r	arm_flex_l	arm_add_l	arm_rot_l	elbow_flex_l	pro_sup_l	wrist_flex_l	wrist_dev_l
1760625413.67400002	      0.23764287	     -0.11380405	      1.67383289	     -0.00527317	      0.95020336	     -0.00749978	     80.00000000	     -7.00000000	      0.00000000	     80.00000000	      1.39626340	      0.00000000	      0.00000000	      0.00000000	     80.00000000	     -7.00000000	      0.00000000	     80.00000000	      1.39626340	      0.00000000	      0.00000000	      0.00000000	     -4.17904867	     -1.54998851	     -0.23101029	      5.70492899	     -0.07324686	      0.47054064	      0.00000000	      0.00000000	      0.38152355	      0.44881604	      6.37382371	     -3.88348320	     -0.24620018	      0.83797765	      0.00000000	     -2.54994669	      1.46798789
1760625413.70799994	      0.23649814	     -0.11357868	      1.67860709	     -0.00693070	      0.94997793	     -0.00764022	     80.00000000	     -7.00000000	      0.00000000	     80.00000000	      1.39626340	      0.00000000	      0.00000000	      0.00000000	     80.00000000	     -7.00000000	      0.00000000	     80.00000000	      1.39626340	      0.00000000	      0.00000000	      0.00000000	     -4.22408621	     -1.58589433	     -0.22853206	      5.76839332	     -0.06670143	      0.53895065	      0.00000000	      0.00000000	      0.33965796	      0.44696046	      6.42312840	     -3.92440343	     -0.27788376	      0.88518575	      0.00000000	     -2.56827251	      1.44703740
1760625413.74099994	      0.24275021	     -0.11547371	      1.68710776	     -0.00722144	      0.95021273	     -0.00801443	     80.00000000	     -7.00000000	      0.00000000	     80.00000000	      1.39626340	      0.00000000	      0.00000000	      0.00000000	     80.00000000	     -7.00000000	      0.00000000	     80.00000000	      1.39626340	      0.00000000	      0.00000000	      0.00000000	     -4.20833756	     -1.61131631	     -0.20764534	      5.78336328	     -0.11598614	      0.57236401	      0.00000000	      0.00000000	      0.40326795	      0.42015427	      6.42794676	     -3.92321593	     -0.31467894	      1.00849046	      0.00000000	     -2.55292835	      1.31911948
1760625413.77399993	      0.23399817	     -0.11722966	      1.69036558	     -0.00663951	      0.95037898	     -0.00847131	     80.00000000	     -7.00000000	      0.00000000	     80.00000000	      1.39626340	      0.00000000	      0.00000000	      0.00000000	     80.00000000	     -7.00000000	      0.00000000	     80.00000000	      1.39626340	      0.00000000	      0.00000000	      0.00000000	     -4.13065085	     -1.62671487	     -0.17469840	      5.75345574	     -0.17846542	      0.66960844	      0.00000000	      0.00000000	      0.44631975	      0.41787362	      6.35131993	     -3.93346382	     -0.36833276	      1.30545256	      0.00000000	     -2.56023015	      1.15840598
1760625413.84100008	      0.24621334	     -0.11760449	      1.70138425	     -0.00597994	      0.95047652	     -0.00902603	     80.00000000	     -7.00000000	      0.00000000	     80.00000000	      1.39626340	      0.00000000	      0.00000000	      0.00000000	     80.00000000	     -7.00000000	      0.00000000	     80.00000000	      1.39626340	      0.00000000	      0.00000000	      0.00000000	     -3.92707734	     -1.68314478	     -0.09660962	      5.67956038	     -0.40575763	      1.10235347	      0.00000000	      0.00000000	      0.62195723	      0.37482693	      6.20267730	     -4.02574799	     -0.38506840	      2.16262233	      0.00000000	     -2.53512105	      0.73547822
1760625413.87500000	      0.23928246	     -0.11584975	      1.71934265	     -0.00589748	      0.95064779	     -0.00935780	     80.00000000	     -7.00000000	      0.00000000	     80.00000000	      1.39626340	      0.00000000	      0.00000000	      0.00000000	     80.00000000	     -7.00000000	      0.00000000	     80.00000000	      1.39626340	      0.00000000	      0.00000000	      0.00000000	     -3.88872404	     -1.73532475	     -0.03981640	      5.70262451	     -0.50759878	      1.48869297	      0.00000000	      0.00000000	      0.60036670	      0.33698264	      6.25503190	     -4.03599661	     -0.09492019	      2.60166192	      0.00000000	     -2.56642883	      0.36366454
1760625413.90799999	      0.20843468	     -0.12082069	      1.72412077	     -0.00583617	      0.95042706	     -0.00980427	     80.00000000	     -7.00000000	      0.00000000	     80.00000000	      1.39626340	      0.00000000	      0.00000000	      0.00000000	     80.00000000	     -7.00000000	      0.00000000	     80.00000000	      1.39626340	      0.00000000	      0.00000000	      0.00000000	     -3.71989840	     -1.77574225	      0.08913806	      5.63872625	     -0.65429944	      1.91567259	      0.00000000	      0.00000000	      0.58708579	      0.28185563	      6.23045388	     -4.04181079	      0.38280639	      3.12856951	      0.00000000	     -2.53294018	      0.02903408
1760625413.94199991	      0.25065323	     -0.12307851	      1.73802283	     -0.00601452	      0.95021301	     -0.00985854	     80.00000000	     -7.00000000	      0.00000000	     80.00000000	      1.39626340	      0.00000000	      0.00000000	      0.00000000	     80.00000000	     -7.00000000	      0.00000000	     80.00000000	      1.39626340	      0.00000000	      0.00000000	      0.00000000	     -3.59140208	     -1.87680400	      0.18937943	      5.70109310	     -0.88734190	      2.35705958	      0.00000000	      0.00000000	      0.78650034	      0.00880326	      6.20370937	     -4.16321496	      0.99599438	      4.14211062	      0.00000000	     -2.45457811	     -0.54043220
1760625413.97499990	      0.26397422	     -0.12362013	      1.74307997	     -0.00544925	      0.95000377	     -0.00944809	     80.00000000	     -7.00000000	      0.00000000	     80.00000000	      1.39626340	      0.00000000	      0.00000000	      0.00000000	     80.00000000	     -7.00000000	      0.00000000	     80.00000000	      1.39626340	      0.00000000	      0.00000000	      0.00000000	     -3.34583998	     -1.98261305	      0.30920686	      5.65162253	     -1.16239770	      2.39892879	      0.00000000	      0.63562476	      0.93690443	     -0.26761113	      6.02826518	     -4.42246944	      1.45677593	      5.17853048	      0.00000000	     -2.37378750	     -0.97316433
1760625414.00900006	      0.22295024	     -0.13490627	      1.72703392	     -0.00579019	      0.94941830	     -0.00967212	     80.00000000	     -7.00000000	      0.00000000	     80.00000000	      1.39626340	      0.00000000	      0.00000000	      0.00000000	     80.00000000	     -7.00000000	      0.00000000	     80.00000000	      1.39626340	      0.00000000	      0.00000000	      0.00000000	     -3.05109129	     -2.09863123	      0.47475420	      5.41403782	     -1.83879454	      1.96967144	      0.69879710	      2.98535495	      0.60339335	     -0.89678282	      5.83233391	     -4.94144487	      2.04743559	      6.79110595	      0.46540701	     -2.38599845	     -1.50511582
1760625414.04200006	      0.22488482	     -0.14744954	      1.71998161	     -0.00755023	      0.94912237	     -0.01014536	     80.00000000	     -7.00000000	      0.00000000	     80.00000000	      1.39626340	      0.00000000	      0.00000000	      0.00000000	     80.00000000	     -7.00000000	      0.00000000	     80.00000000	      1.39626340	      0.00000000	      0.00000000	      0.00000000	     -2.99222123	     -2.12008782	      0.62229998	      5.29971541	     -2.58011466	      1.38663378	      1.55619209	      5.23096306	      0.35388225	     -1.53115211	      5.86961576	     -5.30887790	      2.17335291	      7.71109719	      2.88714988	     -2.65074372	     -2.15285664
1760625414.07500005	      0.23557435	     -0.16205329	      1.71648297	     -0.00934266	      0.94891825	     -0.01114460	     80.00000000	     -7.00000000	      0.00000000	     80.00000000	      1.39626340	      0.00000000	      0.00000000	      0.00000000	     80.00000000	     -7.00000000	      0.00000000	     80.00000000	      1.39626340	      0.00000000	      0.00000000	      0.00000000	     -2.86106944	     -2.13156239	      0.71298179	      5.09894824	     -3.43450547	      0.82717943	      2.49703599	      7.83891019	      0.05770806	     -2.18897594	      5.84949985	     -5.76058263	      2.24964159	      8.69823895	      5.58795867	     -2.92406404	     -2.81934836
1760625414.14199996	      0.20586359	     -0.18720580	      1.67242477	     -0.01097047	      0.94820643	     -0.01315437	     80.00000000	     -7.00000000	      0.00000000	     80.00000000	      1.39626340	      0.00000000	      0.00000000	      0.00000000	     80.00000000	     -7.00000000	      0.00000000	     80.00000000	      1.39626340	      0.00000000	      0.00000000	      0.00000000	     -2.25882742	     -2.16091548	      1.01519319	      4.43044638	     -5.71094411	     -0.51098066	      5.09741038	     14.86991572	     -2.11032369	     -3.98713404	      5.41203526	     -6.91173515	      2.15061421	     11.72557269	     11.70527772	     -3.73197694	     -4.22045007
1760625414.17600012	      0.22572058	     -0.18573415	      1.63486410	     -0.01235833	      0.94802300	     -0.01357289	     80.00000000	     -7.00000000	      0.00000000	     80.00000000	      1.39626340	      0.00000000	      0.00000000	      0.00000000	     80.00000000	     -7.00000000	      0.00000000	     80.00000000	      1.39626340	      0.00000000	      0.00000000	      0.00000000	     -1.99400504	     -2.14111624	      1.20086589	      4.08935639	     -6.81675255	     -1.18611265	      6.49771194	     18.11846070	     -3.45169671	     -4.86548336	      5.23315199	     -7.52141746	      1.74128368	     12.82701470	     16.41097001	     -4.39644904	     -5.02434089
1760625414.20900011	      0.21468880	     -0.19453644	      1.61340252	     -0.01379308	      0.94830442	     -0.01476879	     80.00000000	     -7.00000000	      0.00000000	     80.00000000	      1.39626340	      0.00000000	      0.00000000	      0.00000000	     80.00000000	     -7.00000000	      0.00000000	     80.00000000	      1.39626340	      0.00000000	      0.00000000	      0.00000000	     -1.63538733	     -2.03468930	      1.46621666	      3.65882274	     -8.34792693	     -2.16439359	      8.54208516	     22.91492913	     -5.51561900	     -6.13789566	      5.03357049	     -8.30534138	      1.29302677	     14.45810297	     23.62462352	     -5.34343754	     -6.27134302
1760625414.24300003	      0.20851324	     -0.20105285	      1.59662089	     -0.01481782	      0.94903089	     -0.01548695	     80.00000000	     -7.00000000	      0.00000000	     80.00000000	      1.39626340	      0.00000000	      0.00000000	      0.00000000	     80.00000000	     -7.00000000	      0.00000000	     80.00000000	      1.39626340	      0.00000000	      0.00000000	      0.00000000	     -1.56096350	     -2.10665585	      1.55398507	      3.61731679	     -9.32181326	     -2.71583884	     10.06205798	     26.72467788	     -7.19936081	     -7.20754710	      5.07433035	     -9.04106654	      0.89933305	     16.07220933	     28.70062090	     -6.19351257	     -7.07304429
